<?xml version="1.0" standalone="no"?>
<!DOCTYPE svg PUBLIC "-//W3C//DTD SVG 20010904//EN"
 "http://www.w3.org/TR/2001/REC-SVG-20010904/DTD/svg10.dtd">
<svg version="1.0" xmlns="http://www.w3.org/2000/svg"
 width="2000.000000pt" height="2000.000000pt" viewBox="0 0 2000.000000 2000.000000"
 preserveAspectRatio="xMidYMid meet">

<g transform="translate(0.00000,2500.000000) scale(0.150000,-0.150000)"
fill="#000000" stroke="none">
<path d="M9610 14909 c-375 -32 -775 -110 -1112 -219 -71 -22 -128 -45 -128
-51 0 -6 -5 -7 -11 -4 -12 8 -249 -83 -249 -96 0 -10 -78 -69 -92 -69 -21 0
-5 29 20 35 15 4 22 9 15 12 -16 6 -307 -135 -478 -232 -296 -167 -623 -404
-894 -650 -124 -112 -161 -156 -161 -193 0 -11 -4 -24 -10 -27 -5 -3 -10 -20
-10 -36 0 -18 -4 -28 -10 -24 -6 4 -8 16 -4 28 4 12 9 36 10 52 3 34 22 52
-172 -162 -99 -109 -246 -293 -341 -428 -91 -129 -216 -325 -210 -331 2 -3 35
10 72 28 50 24 73 42 86 67 39 73 106 110 150 82 27 -16 122 -14 177 4 35 12
55 27 77 58 16 23 71 93 122 155 51 61 86 112 78 112 -23 0 -26 16 -11 59 24
72 166 272 166 235 0 -12 -53 -100 -74 -124 -31 -34 -77 -120 -70 -131 3 -5 0
-9 -5 -9 -6 0 -11 -4 -11 -10 0 -26 35 3 203 173 246 247 508 463 758 624 49
31 89 63 89 71 0 8 11 27 25 44 18 21 23 36 19 54 -7 26 22 64 59 77 9 4 22
18 27 32 5 14 16 25 23 25 8 0 19 11 25 25 7 14 19 28 27 31 8 4 40 44 70 90
31 46 60 84 65 84 5 0 12 9 15 20 7 23 32 50 46 50 17 0 9 -29 -9 -34 -10 -3
-26 -20 -36 -37 -10 -17 -31 -45 -46 -62 -15 -18 -37 -51 -49 -74 -12 -24 -25
-43 -30 -43 -15 0 -91 -80 -101 -105 -6 -15 -17 -25 -30 -25 -11 0 -20 -2 -20
-5 0 -3 14 -35 36 -83 0 -1 89 43 196 98 107 55 259 127 337 160 419 177 897
295 1371 337 140 12 187 20 183 29 -5 15 14 54 27 54 10 0 25 -39 22 -57 -2
-10 28 -12 125 -10 113 2 130 4 144 21 16 20 16 20 23 -2 7 -20 14 -22 75 -22
109 0 433 -33 544 -56 25 -5 27 -4 27 30 0 20 4 36 9 36 10 0 57 -52 63 -70 2
-6 73 -26 158 -45 260 -58 547 -149 760 -240 45 -19 84 -35 86 -35 2 0 4 12 4
26 0 19 5 25 18 22 24 -5 29 -48 5 -48 -10 -1 54 -37 142 -81 88 -45 195 -101
237 -125 42 -24 86 -44 98 -44 11 0 20 -6 21 -12 0 -7 71 -59 157 -116 662
-432 1212 -1051 1571 -1769 39 -79 71 -145 71 -148 0 -3 -31 -5 -70 -5 l-70 0
-59 118 c-69 137 -155 289 -217 381 -34 52 -45 61 -50 47 -9 -24 -24 -1 -24
38 0 50 -206 321 -423 555 -274 296 -621 575 -997 801 -248 149 -764 379 -803
358 -16 -8 -24 -5 -44 16 -13 14 -26 26 -28 26 -3 0 -75 20 -162 45 -86 25
-162 45 -170 45 -7 0 -13 -11 -13 -24 0 -13 -9 -43 -20 -67 -11 -24 -20 -49
-20 -55 0 -6 23 -16 51 -22 65 -15 69 -15 69 3 0 23 28 18 32 -6 2 -17 35 -31
203 -88 110 -37 224 -77 253 -89 l52 -22 0 44 c0 56 21 77 50 51 15 -14 20
-31 20 -71 l0 -52 118 -57 c428 -206 798 -465 1141 -800 236 -231 413 -442
579 -691 144 -216 293 -484 269 -484 -8 0 -17 -9 -20 -21 -6 -23 -27 -17 -27
7 0 11 -26 14 -146 14 -137 0 -146 -1 -151 -20 -3 -11 -14 -20 -25 -20 -11 0
-22 9 -25 20 -4 16 -14 20 -53 20 l-48 0 19 -37 c20 -39 28 -177 10 -157 -15
15 -41 115 -41 156 l0 38 -221 0 c-191 0 -220 -2 -210 -14 14 -16 4 -43 -23
-65 -13 -11 -16 -9 -21 12 -4 14 -4 35 0 46 5 17 2 21 -17 21 -13 0 -29 -5
-35 -11 -8 -8 -13 -8 -17 0 -10 16 -1768 15 -1784 -1 -8 -8 -15 -8 -25 0 -9 7
-81 11 -215 11 -177 0 -203 -2 -219 -17 -16 -16 -17 -16 -10 1 6 16 -35 17
-779 17 -723 0 -785 -1 -782 -16 4 -25 -19 -28 -27 -5 -6 19 -15 21 -76 21
-59 0 -69 -3 -69 -17 0 -26 -16 -47 -28 -39 -8 5 -8 15 -2 31 l10 25 -250 0
c-213 0 -255 -2 -284 -17 -33 -15 -37 -15 -54 0 -16 15 -47 17 -244 17 -172 0
-227 -3 -231 -12 -3 -10 -7 -10 -19 -1 -11 10 -188 13 -781 15 l-766 3 82 150
c46 83 91 163 101 178 29 42 8 47 -28 5 -28 -32 -33 -35 -50 -22 -16 11 -17
16 -6 29 7 8 21 15 32 15 11 0 36 12 55 28 20 15 38 25 40 22 2 -3 30 35 63
85 70 105 69 106 -47 111 l-73 3 -48 -72 c-57 -84 -149 -236 -158 -261 -6 -15
-1 -14 35 5 22 11 41 26 41 32 0 6 3 7 6 4 4 -4 2 -13 -4 -20 -14 -16 -6 -28
14 -20 8 3 14 1 14 -5 0 -6 3 -17 6 -25 9 -24 -34 -32 -56 -12 -18 16 -21 16
-57 -5 -33 -18 -48 -39 -91 -126 l-52 -104 -70 0 c-38 0 -70 2 -70 5 0 4 7 19
15 34 14 28 14 29 -13 26 -37 -3 -173 -45 -195 -60 -10 -7 -14 -16 -9 -19 11
-7 -25 -86 -39 -86 -12 0 -11 7 2 31 19 36 2 59 -42 59 -41 0 -49 12 -26 43
10 14 18 15 50 6 43 -12 77 -6 196 35 40 14 76 24 80 22 14 -9 30 12 74 100
66 132 148 271 246 419 47 72 87 133 89 137 3 7 -38 -2 -127 -29 -45 -13 -55
-13 -62 -2 -8 12 -11 11 -20 -3 -5 -10 -21 -18 -34 -18 -13 0 -27 -5 -30 -10
-4 -6 -27 -22 -53 -35 -69 -37 -119 -68 -141 -87 -11 -9 -33 -24 -49 -32 -35
-18 -110 -151 -214 -378 l-72 -158 -241 0 c-170 0 -247 -4 -264 -13 -57 -29
-84 -111 -61 -181 9 -28 22 -41 62 -61 48 -24 56 -25 241 -25 l192 0 19 41
c20 40 33 55 42 46 3 -2 -2 -12 -12 -21 -10 -11 -14 -25 -10 -41 l6 -25 458 0
457 0 14 22 14 22 17 -22 18 -22 415 0 415 0 -5 21 c-4 16 -2 20 8 17 8 -3 13
-12 11 -22 -3 -15 71 -16 949 -16 928 0 951 0 946 19 -2 10 -1 24 3 31 12 20
32 0 27 -27 l-4 -24 129 2 c71 1 125 5 120 8 -11 6 0 86 12 99 12 12 26 -22
26 -66 l0 -42 318 2 c234 2 316 6 315 15 -1 6 10 16 25 21 16 5 35 16 43 23
22 21 79 51 79 42 0 -5 -15 -17 -34 -27 -19 -10 -47 -31 -62 -47 l-28 -29 185
0 c120 0 189 4 196 11 8 8 13 8 17 0 10 -16 2796 -16 2796 0 0 8 4 8 14 0 10
-8 235 -11 857 -9 l844 3 33 23 c90 65 79 187 -21 232 -37 17 -67 20 -268 20
l-225 0 -34 78 c-347 802 -953 1541 -1679 2050 -139 97 -324 215 -368 234 -15
7 -30 16 -33 20 -3 4 -89 50 -190 102 -581 298 -1204 473 -1864 526 -148 12
-625 11 -766 -1z m-430 -100 c0 -5 -4 -9 -10 -9 -5 0 -10 7 -10 16 0 8 5 12
10 9 6 -3 10 -10 10 -16z m550 1 c0 -11 -7 -20 -15 -20 -8 0 -15 9 -15 20 0
11 7 20 15 20 8 0 15 -9 15 -20z m1490 -119 c12 -23 13 -31 3 -31 -17 1 -45
29 -38 39 10 17 23 13 35 -8z m-1590 -17 c0 -33 -33 -30 -38 4 -3 17 2 22 17
22 16 0 21 -6 21 -26z m1424 -79 c-16 -25 -42 -36 -28 -12 14 23 27 37 35 37
5 0 2 -11 -7 -25z m-2414 -5 c0 -11 -7 -20 -15 -20 -8 0 -15 9 -15 20 0 11 7
20 15 20 8 0 15 -9 15 -20z m-450 -95 c15 -18 6 -45 -14 -45 -20 0 -29 16 -21
40 8 24 18 25 35 5z m184 -62 c9 -22 -10 -41 -25 -26 -13 13 -5 43 10 43 5 0
12 -8 15 -17z m3512 -15 c-7 -35 -31 -66 -42 -55 -13 12 16 87 33 87 12 0 14
-7 9 -32z m-3560 -79 c-28 -15 -41 -18 -50 -9 -16 16 10 30 54 29 l35 0 -39
-20z m-706 -70 c-7 -11 -14 -18 -17 -15 -8 8 5 36 17 36 7 0 7 -6 0 -21z m-55
-58 c-12 -12 -65 -25 -65 -17 0 8 39 24 60 25 9 1 10 -2 5 -8z m365 -74 c0 -5
-7 -4 -15 3 -8 7 -15 20 -15 29 1 13 3 13 15 -3 8 -11 15 -24 15 -29z m-310
-42 c0 -8 -7 -15 -15 -15 -8 0 -15 7 -15 15 0 8 7 15 15 15 8 0 15 -7 15 -15z
m-65 -45 c-3 -5 -12 -10 -18 -10 -7 0 -6 4 3 10 19 12 23 12 15 0z m-132 -146
c10 -11 -4 -33 -18 -28 -8 3 -11 12 -8 20 5 15 16 18 26 8z m-143 -159 c0 -8
-7 -15 -16 -15 -14 0 -14 3 -4 15 7 8 14 15 16 15 2 0 4 -7 4 -15z m-730 -410
c6 -8 10 -20 8 -26 -2 -6 -12 0 -21 15 -18 27 -8 37 13 11z m-55 -15 c3 -5 1
-10 -4 -10 -6 0 -11 5 -11 10 0 6 2 10 4 10 3 0 8 -4 11 -10z m5 -305 c0 -14
-32 -66 -37 -61 -8 7 17 66 28 66 5 0 9 -2 9 -5z m6760 -31 c0 -8 -7 -14 -15
-14 -15 0 -21 21 -9 33 10 9 24 -2 24 -19z m148 -181 c-5 -25 -28 -28 -28 -4
0 12 6 21 16 21 9 0 14 -7 12 -17z m742 -181 c0 -9 -7 -8 -25 4 -20 13 -23 19
-14 30 10 12 14 11 25 -3 7 -10 14 -24 14 -31z m-290 -57 c0 -8 -4 -15 -10
-15 -5 0 -10 7 -10 15 0 8 5 15 10 15 6 0 10 -7 10 -15z m-7730 -84 c0 -12
-20 -25 -27 -18 -7 7 6 27 18 27 5 0 9 -4 9 -9z m7432 -6 c0 -5 -5 -11 -11
-13 -6 -2 -11 4 -11 13 0 9 5 15 11 13 6 -2 11 -8 11 -13z m-7482 -50 c0 -13
-38 -41 -45 -33 -1 2 1 13 6 26 9 24 39 30 39 7z m-280 -25 c0 -5 15 -13 33
-19 24 -8 32 -17 33 -36 1 -16 -3 -25 -13 -25 -10 0 -14 7 -10 19 5 20 -16 36
-33 26 -5 -3 -16 5 -24 17 -20 28 -20 39 -1 32 8 -4 15 -10 15 -14z m190 -111
c11 -6 5 -9 -20 -10 -19 -1 -41 -3 -49 -3 -8 -1 -18 -12 -23 -25 -12 -34 -21
-20 -13 22 7 34 7 35 48 30 23 -3 49 -9 57 -14z m-120 -75 c0 -8 -4 -12 -10
-9 -5 3 -10 13 -10 21 0 8 5 12 10 9 6 -3 10 -13 10 -21z m-160 4 c-1 -14 -49
-53 -56 -46 -6 7 35 58 47 58 5 0 9 -6 9 -12z m-74 -84 c-4 -9 -9 -15 -11 -12
-3 3 -3 13 1 22 4 9 9 15 11 12 3 -3 3 -13 -1 -22z m-50 -100 c-4 -9 -9 -15
-11 -12 -3 3 -3 13 1 22 4 9 9 15 11 12 3 -3 3 -13 -1 -22z m8874 -19 c0 -16
-6 -25 -15 -25 -9 0 -15 9 -15 25 0 16 6 25 15 25 9 0 15 -9 15 -25z m-8677
-81 c9 -9 -4 -35 -14 -28 -5 3 -9 12 -9 20 0 14 12 19 23 8z m7921 -98 c15
-32 13 -66 -3 -66 -14 0 -42 72 -36 91 8 25 19 18 39 -25z m-3494 -16 c68 -40
116 -60 158 -65 26 -3 61 -13 79 -22 27 -13 43 -14 95 -6 35 6 65 9 67 7 2 -1
-22 -10 -52 -19 -36 -10 -54 -21 -51 -28 2 -7 -3 -21 -12 -32 -11 -14 -14 -15
-11 -4 3 9 2 20 -1 25 -10 13 -111 45 -154 48 -21 2 -44 9 -52 15 -8 7 -19 10
-24 7 -6 -3 -12 3 -15 14 -3 11 -12 20 -21 20 -9 0 -16 5 -16 10 0 6 -9 20
-20 32 -11 12 -20 27 -20 32 0 6 6 4 13 -4 7 -8 24 -22 37 -30z m300 26 c0 -3
-4 -8 -10 -11 -5 -3 -10 -1 -10 4 0 6 5 11 10 11 6 0 10 -2 10 -4z m-3935 -16
c21 -8 26 -16 23 -38 -4 -31 -33 -41 -62 -19 -14 10 -17 21 -12 40 7 30 13 32
51 17z m1737 -22 c-15 -15 -26 -4 -18 18 5 13 9 15 18 6 9 -9 9 -15 0 -24z
m-875 -32 c-2 -6 -11 -12 -20 -14 -11 -2 -14 2 -10 17 3 12 11 17 19 14 8 -3
13 -11 11 -17z m2127 2 c-33 -38 -68 -67 -81 -68 -24 0 -13 15 22 34 19 10 42
27 51 37 24 27 31 24 8 -3z m920 7 c-4 -8 -8 -15 -10 -15 -2 0 -4 7 -4 15 0 8
4 15 10 15 5 0 7 -7 4 -15z m-1464 -44 c0 -16 -9 -39 -19 -52 -17 -21 -20 -22
-26 -8 -7 20 19 89 34 89 6 0 11 -13 11 -29z m770 -11 c0 -11 -7 -20 -15 -20
-8 0 -15 9 -15 20 0 11 7 20 15 20 8 0 15 -9 15 -20z m890 11 c0 -17 -22 -24
-30 -11 -4 7 -13 9 -20 5 -9 -5 -11 -4 -6 3 9 14 56 16 56 3z m2244 0 c8 -13
-5 -71 -15 -71 -5 0 -14 11 -21 25 -8 19 -8 28 2 40 14 17 26 19 34 6z m-7124
-16 c0 -8 -7 -15 -15 -15 -16 0 -20 12 -8 23 11 12 23 8 23 -8z m-297 -21 c-8
-21 -23 -17 -23 6 0 13 5 18 14 14 8 -3 12 -12 9 -20z m8157 1 c0 -8 -4 -15
-9 -15 -13 0 -22 16 -14 24 11 11 23 6 23 -9z m-4011 -9 c8 -9 8 -16 2 -20 -6
-4 -15 3 -21 14 -12 23 2 27 19 6z m1146 -7 c10 -32 -8 -43 -30 -19 -16 18
-17 23 -5 30 22 14 28 12 35 -11z m3834 -25 c-17 -21 -31 -17 -19 6 6 11 15
18 21 14 6 -4 6 -11 -2 -20z m-4289 1 c0 -8 -7 -15 -15 -15 -16 0 -20 12 -8
23 11 12 23 8 23 -8z m-2788 -10 c0 -5 -5 -11 -11 -13 -6 -2 -11 4 -11 13 0 9
5 15 11 13 6 -2 11 -8 11 -13z"/>
<path d="M9769 14450 c-356 -19 -722 -84 -1074 -189 -155 -47 -385 -134 -385
-147 0 -6 -9 -19 -19 -28 -18 -17 -20 -17 -29 0 -9 15 -29 8 -195 -73 -101
-50 -233 -118 -291 -152 -123 -71 -327 -204 -321 -209 4 -4 87 32 115 49 8 5
44 23 80 40 55 26 79 31 160 34 52 2 106 6 120 10 22 6 22 4 -5 -11 -20 -12
-55 -18 -110 -19 -47 -1 -91 -8 -107 -16 -14 -8 -50 -27 -80 -43 -29 -15 -71
-34 -93 -40 -31 -9 -40 -17 -41 -34 -1 -13 -11 -34 -24 -47 -13 -14 -20 -31
-17 -39 4 -10 -2 -20 -14 -27 -11 -6 -28 -27 -36 -47 -14 -33 -16 -35 -28 -19
-10 14 -10 25 0 53 7 20 18 40 25 44 7 4 10 15 7 24 -3 8 -2 18 3 21 13 8 13
35 0 35 -14 0 -175 -124 -307 -238 -224 -191 -602 -594 -589 -628 3 -9 -1 -14
-12 -14 -19 -1 -169 -197 -158 -207 14 -15 151 1 162 18 3 5 10 9 16 9 7 0 6
-6 -2 -15 -10 -12 -10 -15 1 -15 8 1 43 40 79 87 105 139 237 288 398 447 83
81 153 154 156 162 3 8 11 14 17 14 16 0 223 170 227 186 2 8 10 14 18 14 8 0
77 43 153 95 635 434 1331 682 2094 744 161 14 515 14 672 1 157 -13 384 -45
522 -74 l111 -23 7 46 c4 25 14 59 22 74 8 16 12 31 10 34 -5 5 -108 30 -160
38 -308 51 -349 56 -363 38 -12 -17 -14 -17 -32 3 -17 18 -36 22 -129 28 -216
12 -401 14 -554 6z m391 -35 c0 -16 -6 -25 -15 -25 -9 0 -15 9 -15 25 0 16 6
25 15 25 9 0 15 -9 15 -25z m473 -131 c-3 -8 -8 -14 -12 -14 -11 0 -31 47 -24
54 10 10 42 -25 36 -40z m-1773 -79 c0 -20 -17 -27 -39 -16 -26 14 -33 38 -20
64 12 21 12 21 35 -7 13 -15 24 -33 24 -41z m-701 -251 c2 -2 -14 -4 -37 -4
-22 0 -44 5 -47 10 -6 10 73 3 84 -6z m-112 -101 c-9 -9 -19 -14 -23 -11 -10
10 6 28 24 28 15 0 15 -1 -1 -17z m-61 -48 c-11 -8 -22 -12 -25 -9 -6 6 19 24
34 24 6 -1 1 -7 -9 -15z m-646 -325 c0 -5 -7 -10 -15 -10 -8 0 -15 5 -15 10 0
6 7 10 15 10 8 0 15 -4 15 -10z m-93 -43 c7 0 16 -15 19 -34 10 -52 -27 -83
-56 -48 -7 8 -22 16 -34 16 -18 1 -18 2 -3 6 14 4 17 11 13 29 -9 33 1 46 27
38 12 -4 28 -7 34 -7z m-117 -61 c0 -3 -4 -8 -10 -11 -5 -3 -10 -1 -10 4 0 6
5 11 10 11 6 0 10 -2 10 -4z m10 -36 c-19 -12 -30 -12 -30 -1 0 10 31 20 40
14 2 -2 -2 -8 -10 -13z"/>
<path d="M9550 13574 l-225 -123 -38 -108 c-92 -257 -184 -533 -178 -533 3 0
73 -11 156 -25 82 -13 150 -23 150 -22 1 1 25 67 53 147 l51 145 0 -106 c1
-149 -32 -717 -45 -776 l-4 -23 541 0 542 0 -6 107 c-4 58 -7 126 -7 150 0 30
-4 43 -14 43 -9 0 -12 -7 -9 -20 3 -12 0 -20 -7 -20 -6 0 -14 9 -17 19 -3 12
-17 22 -37 27 -34 7 -66 31 -66 48 0 6 7 3 14 -6 17 -23 76 -36 76 -17 0 10 3
10 11 2 26 -26 39 -2 39 74 l0 75 -42 -7 c-24 -4 -50 -13 -58 -20 -44 -37
-181 -80 -199 -62 -8 8 -11 8 -11 -1 0 -7 -7 -12 -15 -12 -9 0 -28 -8 -43 -19
-15 -10 -63 -40 -107 -67 -44 -26 -82 -50 -85 -53 -3 -3 -16 -15 -30 -26 l-25
-20 18 21 c9 11 17 25 17 30 0 20 56 61 112 84 42 17 60 31 69 52 21 52 95 89
114 58 16 -26 150 2 191 41 18 17 31 21 58 16 l35 -6 -4 62 c-3 34 -7 134 -9
222 l-5 160 25 -65 c48 -127 38 -123 96 -34 29 43 53 73 56 66 2 -6 -10 -31
-27 -54 -57 -81 -74 -120 -62 -150 10 -26 41 -40 41 -19 0 5 9 7 20 4 11 -3
20 0 20 6 0 5 6 8 13 6 6 -3 55 8 107 23 l95 29 -3 33 c-6 72 -155 485 -189
523 -9 9 -118 69 -242 133 -175 90 -229 113 -241 105 -37 -26 -111 -61 -153
-71 -60 -16 -138 1 -223 46 -35 19 -65 34 -67 33 -1 -1 -103 -57 -227 -125z
m1040 -368 c0 -8 -4 -17 -9 -20 -5 -4 -12 -23 -16 -44 -3 -20 -11 -44 -16 -52
-11 -16 -6 21 12 93 10 36 29 52 29 23z m4 -141 c3 -8 1 -15 -3 -15 -5 0 -11
7 -15 15 -3 8 -1 15 3 15 5 0 11 -7 15 -15z m-584 -51 c0 -9 -5 -14 -12 -12
-18 6 -21 28 -4 28 9 0 16 -7 16 -16z m249 -78 c9 -11 10 -20 1 -36 -14 -27
-30 -17 -30 21 0 32 11 37 29 15z m-389 -89 c0 -13 7 -33 16 -45 8 -12 12 -22
7 -22 -16 0 -54 67 -47 83 8 22 24 11 24 -16z m-175 -51 c0 -11 -54 -30 -62
-22 -3 3 0 13 7 21 14 17 55 17 55 1z m168 -86 c7 0 17 -11 23 -24 10 -22 9
-25 -12 -29 -19 -3 -23 0 -22 17 0 12 -1 28 -4 36 -3 8 -3 12 -1 8 3 -5 10 -8
16 -8z m-247 -149 c-4 -6 -16 -11 -27 -11 -19 0 -24 15 -13 45 6 15 9 15 27
-3 11 -11 16 -25 13 -31z m373 -79 c-2 -5 -14 7 -27 27 l-24 36 27 -26 c15
-15 26 -31 24 -37z m291 -46 c0 -3 -4 -8 -10 -11 -5 -3 -10 -1 -10 4 0 6 5 11
10 11 6 0 10 -2 10 -4z m-200 -43 c0 -24 -25 -9 -28 17 -3 21 -2 22 12 11 9
-7 16 -20 16 -28z m160 3 c0 -8 -7 -16 -15 -20 -17 -6 -18 -4 -9 18 8 20 24
21 24 2z m-385 -76 c-9 -14 -25 5 -25 30 0 12 3 12 16 -2 9 -9 13 -21 9 -28z
m382 -26 c-3 -3 -12 -4 -19 -1 -8 3 -5 6 6 6 11 1 17 -2 13 -5z m193 -69 c-7
-9 -15 -13 -17 -11 -6 6 20 36 26 30 2 -2 -2 -10 -9 -19z m-80 1 c0 -7 -7 -19
-15 -26 -12 -10 -15 -9 -15 7 0 11 3 23 7 26 11 12 23 8 23 -7z"/>
<path d="M7599 12906 c15 -18 16 -298 1 -326 -10 -19 -8 -20 90 -20 l100 0 0
36 c0 31 -3 35 -17 28 -10 -4 -37 -9 -60 -12 l-43 -4 0 52 0 52 45 -4 45 -3 0
35 0 35 -45 -3 -45 -4 0 52 0 52 43 -4 c23 -3 50 -8 60 -12 14 -7 17 -3 17 28
l0 36 -101 0 c-85 0 -100 -2 -90 -14z"/>
<path d="M7834 12907 c-3 -8 -4 -45 -2 -82 l3 -68 60 -36 c55 -33 60 -39 60
-71 0 -32 -3 -35 -32 -38 -31 -3 -33 -2 -33 31 0 27 -5 36 -25 45 -41 19 -45
15 -45 -41 0 -81 9 -88 110 -85 l85 3 3 76 c3 85 3 86 -77 129 -41 22 -46 29
-46 60 0 34 1 35 42 36 51 2 73 -17 55 -47 -10 -15 -8 -20 8 -29 19 -10 20 -8
20 48 0 32 -5 63 -12 70 -17 17 -167 16 -174 -1z"/>
<path d="M8040 12885 c0 -39 9 -43 45 -19 l25 16 0 -150 c0 -147 0 -150 23
-155 12 -2 29 -7 37 -11 13 -5 15 15 12 155 l-3 162 25 -17 c34 -22 36 -21 36
19 l0 35 -100 0 -100 0 0 -35z"/>
<path d="M8278 12761 c2 -103 -1 -167 -8 -180 -10 -21 -9 -21 90 -21 99 0 101
0 110 26 16 41 12 73 -15 112 l-25 37 25 3 c24 3 25 6 25 67 0 35 -4 75 -10
89 -9 25 -12 26 -102 26 l-93 0 3 -159z m127 -21 l0 -125 -32 -3 -33 -3 0 131
0 131 33 -3 32 -3 0 -125z"/>
<path d="M11660 12901 c-10 -20 -14 -121 -5 -121 4 0 19 7 35 15 23 12 30 22
30 45 0 33 11 43 35 34 12 -5 15 -17 13 -47 -3 -39 -7 -43 -58 -72 l-55 -31
-3 -82 -3 -82 96 0 95 0 0 70 c0 39 -2 70 -5 70 -4 0 -19 -7 -35 -15 -23 -12
-30 -22 -30 -45 0 -27 -3 -30 -30 -30 -27 0 -30 3 -30 33 0 37 13 52 77 87 45
25 53 41 53 108 0 74 -10 82 -95 82 -63 0 -76 -3 -85 -19z"/>
<path d="M11882 12908 c-17 -17 -17 -319 0 -336 7 -7 41 -12 83 -12 42 0 76 5
83 12 19 19 16 222 -4 256 -15 25 -15 25 0 8 15 -19 16 -18 16 16 0 20 -3 43
-6 52 -8 22 -34 20 -34 -1 -1 -17 -1 -17 -14 0 -16 20 -105 24 -124 5z m106
-166 l3 -132 -26 0 -25 0 0 128 c0 71 3 132 7 136 4 4 14 5 23 4 12 -3 15 -26
18 -136z"/>
<path d="M12105 12740 l0 -180 40 0 40 0 0 180 0 180 -40 0 -40 0 0 -180z"/>
<path d="M12210 12885 c0 -33 1 -35 21 -24 32 17 89 20 89 5 0 -11 -77 -244
-95 -288 -6 -15 -1 -18 34 -18 33 0 41 4 41 18 0 10 24 91 53 180 l52 162 -97
0 -98 0 0 -35z"/>
<path d="M4311 11427 c-45 -16 -72 -54 -78 -111 -5 -38 -3 -46 11 -46 19 0 21
-11 5 -27 -8 -8 -2 -20 19 -44 l30 -34 297 -3 c265 -3 297 -1 292 13 -4 9 -1
15 7 15 8 0 16 -7 20 -15 5 -13 244 -15 2069 -15 l2063 0 42 42 c23 22 43 45
43 50 3 19 5 24 22 49 10 14 15 33 11 42 -6 16 16 42 54 65 15 8 22 9 22 1 0
-6 -9 -13 -21 -16 -16 -4 -19 -11 -14 -27 21 -68 23 -94 13 -134 -6 -23 -15
-45 -20 -48 -7 -4 -7 6 -2 27 10 45 11 73 1 77 -4 1 -32 -27 -62 -63 l-55 -65
1385 0 1385 0 0 25 c0 16 6 25 15 25 9 0 15 -9 15 -25 l0 -24 291 -1 291 0 -7
27 c-13 46 -11 65 8 77 12 8 22 8 35 0 25 -16 27 -43 3 -75 l-22 -29 1302 0
c1235 0 1301 1 1294 18 -21 55 -13 98 17 87 20 -8 30 -47 22 -80 l-6 -25 271
0 c239 0 271 2 271 16 0 11 6 13 20 9 26 -8 57 10 80 48 38 62 18 139 -47 174
-32 17 -33 17 -47 -2 -14 -19 -15 -19 -27 8 -18 39 -51 36 -85 -8 -28 -38 -40
-36 -46 5 l-3 25 -136 3 -136 3 -11 -26 c-15 -32 -28 -32 -36 0 -6 24 -8 25
-102 25 -81 0 -95 -2 -85 -14 9 -10 8 -16 -4 -26 -13 -11 -15 -8 -15 14 l0 26
-125 0 c-102 0 -126 -3 -133 -16 -8 -14 -10 -14 -21 0 -12 14 -98 16 -800 15
-470 0 -777 -4 -764 -9 12 -5 28 -18 34 -29 7 -10 19 -17 26 -14 8 3 13 -2 13
-14 0 -10 16 -36 35 -57 19 -21 35 -40 35 -42 0 -6 -75 41 -93 59 -10 10 -28
22 -41 27 -16 6 -26 20 -30 44 l-7 36 -185 0 c-177 0 -186 -1 -191 -20 -3 -11
-9 -20 -14 -20 -5 0 -9 9 -9 20 0 28 -43 27 -62 -2 l-15 -22 -19 22 -18 22
-1012 0 -1012 0 -6 -31 c-6 -31 -26 -32 -26 0 0 27 -10 31 -36 15 -12 -9 -34
-14 -47 -12 -17 2 -32 -6 -50 -27 l-25 -30 -7 38 -7 38 -39 -39 c-21 -22 -41
-37 -44 -34 -3 4 -9 2 -13 -4 -4 -5 -32 -26 -62 -47 -30 -20 -65 -44 -77 -53
-13 -9 -23 -13 -23 -8 0 5 16 20 36 34 156 111 197 160 133 160 -28 0 -30 -2
-18 -17 13 -17 13 -17 -13 0 -21 13 -49 17 -119 17 -84 0 -90 -1 -78 -17 8 -9
27 -22 44 -29 l30 -13 -38 -1 c-24 0 -40 5 -43 15 -4 8 -13 15 -20 15 -8 0
-17 7 -20 15 -4 8 -17 15 -31 15 -13 0 -21 -4 -18 -10 3 -5 1 -10 -4 -10 -6 0
-11 4 -11 10 0 16 -2399 13 -2418 -2 -13 -10 -14 -10 -8 0 6 9 -168 12 -857
12 l-865 0 -4 -25 c-7 -35 8 -43 94 -52 26 -3 52 -11 58 -18 8 -10 -9 -12 -82
-10 -85 2 -95 0 -122 -22 -36 -30 -47 -22 -16 12 13 14 26 44 30 70 l7 45
-182 0 -182 0 -36 -27 c-20 -16 -36 -35 -34 -43 2 -16 -10 -21 -32 -12 -7 3
-22 -6 -32 -19 -10 -13 -19 -20 -19 -16 0 15 22 51 46 76 13 13 24 28 24 32 0
14 -949 10 -989 -4z m10285 -55 c-4 -3 -11 -1 -17 5 -8 8 -7 17 3 32 13 22 13
22 16 -5 2 -14 1 -28 -2 -32z m-5131 14 c17 -32 16 -66 -3 -66 -13 0 -45 77
-38 89 12 18 22 13 41 -23z m669 18 c9 -24 7 -28 -9 -14 -17 14 -20 30 -6 30
5 0 12 -7 15 -16z m-174 -18 c0 -15 -29 -30 -39 -20 -3 3 3 12 13 20 24 17 26
17 26 0z m680 -11 c0 -8 -7 -15 -15 -15 -8 0 -15 7 -15 15 0 8 7 15 15 15 8 0
15 -7 15 -15z m2127 9 c-3 -3 -12 -4 -19 -1 -8 3 -5 6 6 6 11 1 17 -2 13 -5z
m59 -21 c-10 -10 -19 5 -10 18 6 11 8 11 12 0 2 -7 1 -15 -2 -18z m-7382 6
c14 -7 27 -18 31 -26 4 -12 0 -14 -22 -8 -31 7 -53 23 -53 36 0 12 14 11 44
-2z m7261 -12 c-31 -18 -87 -26 -115 -15 -16 6 -26 6 -28 -1 -2 -6 -13 -16
-24 -22 -17 -9 -20 -9 -15 4 8 21 -80 10 -112 -15 -30 -23 -37 -17 -18 18 l14
27 136 3 c75 1 144 7 154 12 25 14 33 3 8 -11z m-7740 -8 c-4 -5 -13 -9 -22
-9 -13 0 -13 3 -3 15 13 15 35 11 25 -6z m1805 -4 c0 -8 -7 -15 -15 -15 -8 0
-15 7 -15 15 0 8 7 15 15 15 8 0 15 -7 15 -15z m8956 -32 c-5 -12 -10 -13 -18
-5 -8 8 -8 15 3 28 15 18 25 4 15 -23z m-286 -9 c-18 -21 -24 -10 -9 18 8 14
14 18 17 10 2 -7 -2 -19 -8 -28z m-9062 14 c-6 -18 -28 -21 -28 -4 0 9 7 16
16 16 9 0 14 -5 12 -12z m6312 -24 c0 -23 -4 -34 -12 -32 -33 11 -36 68 -3 68
11 0 15 -10 15 -36z m-7270 10 c0 -8 -5 -12 -10 -9 -6 4 -8 11 -5 16 9 14 15
11 15 -7z m621 -5 c19 -19 20 -23 6 -31 -10 -5 -14 -16 -11 -26 4 -9 -3 -2
-15 16 -22 34 -41 35 -41 1 0 -10 -7 -19 -15 -19 -8 0 -15 7 -15 15 0 18 -1
18 -36 0 -16 -8 -39 -15 -51 -15 -23 0 -66 46 -57 61 8 14 24 10 24 -6 0 -8 5
-15 10 -15 6 0 10 -7 10 -16 0 -19 22 -13 100 27 67 34 65 34 91 8z m1402 6
c4 -8 2 -17 -4 -21 -15 -9 -39 3 -39 21 0 19 36 20 43 0z m185 -1 c29 -20 28
-44 -1 -44 -33 0 -62 23 -54 44 8 20 26 20 55 0z m1943 -3 c-12 -8 -51 -4 -51
5 0 2 15 4 33 4 22 0 28 -3 18 -9z m4164 -41 c-10 -19 -22 -30 -30 -26 -9 3
-22 -9 -35 -30 -33 -52 -35 -41 -4 17 45 82 110 119 69 39z m-8055 30 c0 -6
-8 -14 -17 -17 -10 -4 -21 -11 -25 -17 -4 -6 -10 -7 -15 -3 -4 5 3 17 17 27
28 22 40 25 40 10z m195 0 c3 -5 1 -10 -4 -10 -6 0 -11 5 -11 10 0 6 2 10 4
10 3 0 8 -4 11 -10z m605 -7 c0 -5 -4 -14 -9 -22 -11 -17 -32 -5 -24 14 5 15
33 21 33 8z m3254 -15 c18 -25 21 -83 6 -93 -8 -5 -40 81 -40 107 0 16 19 8
34 -14z m5236 0 c0 -19 -18 -43 -25 -36 -4 3 -2 16 5 27 12 24 20 27 20 9z
m-10180 -18 c0 -5 -4 -10 -10 -10 -5 0 -10 5 -10 10 0 6 5 10 10 10 6 0 10 -4
10 -10z m8440 6 c0 -3 -4 -8 -10 -11 -5 -3 -10 -1 -10 4 0 6 5 11 10 11 6 0
10 -2 10 -4z m2298 -15 c3 -8 -1 -12 -9 -9 -7 2 -15 10 -17 17 -3 8 1 12 9 9
7 -2 15 -10 17 -17z m-8818 -11 c0 -6 9 -14 20 -18 13 -5 16 -12 11 -20 -7
-11 -15 -11 -45 2 -42 17 -49 46 -11 46 14 0 25 -5 25 -10z m2750 -44 c0 -2
-7 -7 -16 -10 -8 -3 -12 -2 -9 4 6 10 25 14 25 6z"/>
<path d="M4757 10763 c-4 -3 -7 -26 -7 -50 0 -41 2 -44 23 -37 12 3 33 13 47
21 112 63 115 73 18 73 -41 0 -78 -3 -81 -7z"/>
<path d="M4907 10719 c-26 -27 -54 -49 -62 -49 -8 0 -15 -4 -15 -10 0 -5 -18
-19 -40 -30 l-40 -20 0 -180 c0 -99 2 -180 5 -180 3 0 74 52 159 115 119 89
161 115 185 115 l31 0 0 -896 0 -897 -45 -98 c-25 -54 -45 -100 -45 -102 0 -3
517 87 538 94 7 3 -5 32 -33 79 l-44 75 -1 573 c0 502 -2 572 -15 572 -9 0
-15 9 -15 25 0 18 4 23 15 19 13 -5 15 30 15 280 l0 286 30 0 c20 0 61 -20
118 -57 48 -31 117 -76 155 -99 l67 -44 0 240 0 240 -457 -1 -458 0 -48 -50z
m566 -125 c8 -8 -3 -34 -14 -34 -5 0 -9 9 -9 20 0 19 11 26 23 14z m-170 -220
c-8 -21 -23 -17 -23 6 0 13 5 18 14 14 8 -3 12 -12 9 -20z m175 -15 c-2 -6 -8
-10 -13 -10 -5 0 -11 4 -13 10 -2 6 4 11 13 11 9 0 15 -5 13 -11z m-28 -194
c9 -11 10 -19 3 -26 -14 -14 -43 0 -43 22 0 23 23 25 40 4z m-77 -119 c6 -16
-2 -28 -14 -20 -12 7 -11 34 0 34 5 0 11 -6 14 -14z m-183 -1450 c0 -8 -4 -17
-9 -21 -12 -7 -24 12 -16 25 9 15 25 12 25 -4z"/>
<path d="M5970 10766 c0 -2 20 -42 45 -87 l45 -84 0 -182 c0 -101 2 -183 5
-183 3 0 19 15 35 33 l30 32 -26 -47 c-14 -26 -30 -50 -35 -53 -5 -4 -9 -21
-9 -39 0 -27 9 -40 50 -75 28 -24 66 -47 85 -52 51 -14 43 -29 -15 -29 -42 0
-54 5 -82 32 l-33 32 -3 -232 c-2 -201 0 -236 14 -257 15 -23 15 -25 0 -31
-13 -5 -16 -25 -16 -121 0 -73 4 -112 10 -108 6 3 10 2 10 -4 0 -5 -4 -13 -10
-16 -6 -4 -10 -59 -10 -132 0 -115 1 -125 18 -118 9 4 26 10 36 13 30 8 11
-14 -24 -28 l-30 -12 0 -96 c0 -94 -1 -97 -46 -185 -25 -49 -44 -90 -42 -92 5
-5 538 71 544 78 3 3 -15 37 -40 76 l-46 71 0 224 c0 241 -1 246 -53 227 -12
-5 -46 -5 -74 -1 -36 4 -63 2 -84 -7 -40 -17 -49 -10 -16 11 21 14 56 18 132
15 11 0 34 1 50 4 17 3 33 5 37 6 4 0 9 56 10 124 l3 122 145 12 c80 6 162 12
183 12 l37 1 0 -356 0 -357 -41 -74 c-23 -41 -38 -77 -35 -80 5 -5 431 39 513
53 l32 6 -45 67 -44 67 2 842 3 842 -32 0 c-27 0 -220 -55 -233 -67 -2 -2 2
-8 9 -12 11 -7 9 -17 -10 -52 -25 -44 -60 -70 -44 -33 24 59 16 78 -37 88
l-38 7 0 -205 c0 -233 -4 -223 88 -213 26 3 39 3 30 1 -22 -7 -23 -30 -2 -38
9 -3 31 -6 49 -6 43 0 54 -16 21 -32 -22 -9 -29 -8 -47 8 -13 12 -23 14 -27 8
-9 -14 -60 -28 -89 -25 -22 2 -23 -1 -23 -77 l0 -80 -37 -6 c-21 -3 -103 -8
-182 -12 -115 -5 -145 -4 -152 7 -6 11 -12 9 -31 -7 -13 -11 -40 -28 -60 -38
-21 -9 -38 -21 -38 -27 0 -5 -12 -15 -27 -21 -16 -7 -36 -18 -45 -26 -11 -9
-18 -11 -18 -4 0 13 67 68 130 107 83 51 91 66 88 153 l-3 77 -48 7 c-70 10
-73 21 -4 16 l57 -5 0 228 c0 225 0 227 -21 222 -11 -3 -23 -12 -26 -19 -3 -8
-12 -14 -19 -14 -8 0 -17 -7 -20 -15 -4 -8 -11 -15 -18 -15 -16 0 -70 -68 -99
-127 -15 -28 -40 -61 -57 -73 -34 -24 -39 -14 -11 21 24 31 52 114 45 133 -4
9 6 18 29 25 19 7 52 25 73 41 22 16 42 30 46 30 12 0 80 49 94 68 30 40 10
82 -39 82 -23 0 -28 4 -23 16 15 39 -8 44 -215 44 -110 0 -199 -2 -199 -4z
m220 -82 c0 -8 -4 -14 -10 -14 -5 0 -10 9 -10 21 0 11 5 17 10 14 6 -3 10 -13
10 -21z m218 -280 c-5 -28 -28 -29 -28 -1 0 13 3 27 7 31 10 10 25 -10 21 -30z
m-102 -133 c-8 -13 -66 -35 -73 -27 -10 9 2 17 39 26 18 4 34 8 36 9 2 1 1 -3
-2 -8z m-7 -146 c1 -5 -6 -2 -15 7 -10 9 -13 21 -8 29 5 9 9 8 15 -7 4 -10 8
-23 8 -29z m761 -25 c-8 -5 -19 -10 -25 -10 -5 0 -3 5 5 10 8 5 20 10 25 10 6
0 3 -5 -5 -10z m-905 -810 c-3 -5 -14 -10 -23 -9 -14 0 -13 2 3 9 27 11 27 11
20 0z m15 -220 c0 -5 -7 -10 -16 -10 -8 0 -12 5 -9 10 3 6 10 10 16 10 5 0 9
-4 9 -10z m51 -23 c-10 -9 -11 -8 -5 6 3 10 9 15 12 12 3 -3 0 -11 -7 -18z"/>
<path d="M6440 10765 c0 -2 14 -12 31 -21 26 -13 33 -14 40 -2 15 23 10 28
-31 28 -22 0 -40 -2 -40 -5z"/>
<path d="M6720 10765 c0 -19 54 -107 68 -112 9 -3 27 -15 39 -25 33 -30 132
-24 306 19 71 18 79 24 116 86 l23 37 -276 0 c-152 0 -276 -2 -276 -5z m158
-57 l-13 -23 -3 24 c-2 13 2 27 10 32 18 12 22 -5 6 -33z m340 8 c3 -12 -1
-17 -10 -14 -7 3 -15 13 -16 22 -3 12 1 17 10 14 7 -3 15 -13 16 -22z"/>
<path d="M7420 10762 c0 -4 18 -38 40 -76 32 -54 40 -78 40 -117 0 -38 4 -49
16 -49 9 0 14 -6 11 -12 -2 -7 -10 -12 -16 -10 -8 1 -11 -200 -11 -757 l0
-759 -40 -71 c-22 -39 -40 -73 -40 -76 0 -14 75 -3 97 15 14 11 32 20 39 20 8
0 14 5 14 10 0 6 7 10 15 10 11 0 14 7 9 25 -5 21 -3 25 16 25 12 0 29 -4 39
-10 27 -14 83 9 77 33 -2 11 9 32 31 55 29 31 33 40 23 55 -9 15 -8 19 7 23
21 6 63 63 63 86 0 9 7 18 15 22 13 5 15 41 15 244 l0 239 155 7 c85 4 158 5
163 2 25 -15 142 -54 142 -46 0 5 -9 12 -20 15 -31 10 -26 37 5 29 l25 -6 0
171 c0 94 -2 171 -4 171 -2 0 -38 -16 -80 -35 -74 -33 -83 -35 -231 -41 l-155
-7 0 282 0 282 183 -1 c134 -1 186 -5 197 -15 8 -7 70 -38 138 -68 l122 -56 0
200 0 199 -429 0 -430 0 -3 -22 c-2 -15 -11 -24 -25 -26 -19 -3 -23 1 -23 22
l0 26 -95 0 c-52 0 -95 -3 -95 -8z m405 -258 c20 -26 18 -44 -4 -44 -28 0
-151 40 -151 49 0 18 18 22 78 18 46 -3 67 -9 77 -23z m560 -15 c0 -17 -33
-25 -47 -11 -6 6 -8 18 -5 26 8 19 52 6 52 -15z m-655 -145 c0 -8 -7 -14 -15
-14 -15 0 -21 21 -9 33 10 9 24 -2 24 -19z m-65 -10 c20 -30 8 -50 -23 -40
-25 8 -36 34 -21 52 16 20 24 18 44 -12z m99 -566 c-3 -13 -11 -29 -16 -35
-12 -15 -38 -17 -38 -3 0 6 5 10 10 10 6 0 16 11 22 25 14 31 32 33 22 3z
m-84 -125 c4 -60 20 -157 28 -165 7 -7 17 -6 32 2 24 13 96 8 111 -7 5 -5 -18
-9 -50 -10 -32 0 -72 -8 -89 -17 -17 -9 -40 -16 -51 -16 -11 0 -22 -9 -26 -20
-3 -11 -12 -20 -20 -20 -7 0 -16 -7 -19 -16 -4 -9 -9 -14 -13 -10 -3 3 -15 -1
-25 -11 -10 -9 -18 -12 -18 -8 0 14 42 55 56 55 15 0 57 67 62 100 2 14 5 53
5 88 1 34 5 62 9 62 5 0 8 -3 8 -7z m20 -385 c0 -14 67 -36 94 -31 22 4 26 2
26 -16 0 -18 -3 -20 -19 -11 -11 5 -31 10 -45 10 -33 0 -96 55 -96 84 0 20 1
20 20 -4 11 -14 20 -28 20 -32z"/>
<path d="M9513 10760 c-91 -19 -145 -70 -163 -156 -6 -28 -9 -142 -8 -273 l3
-224 35 31 c19 18 39 32 45 32 5 -1 -11 -20 -37 -43 -46 -41 -47 -43 -39 -80
11 -48 53 -111 88 -134 14 -10 90 -48 167 -84 l141 -66 45 25 c25 13 77 45
115 71 39 25 75 48 82 51 6 3 26 18 43 34 l33 29 -154 76 c-196 97 -194 94
-194 278 0 131 0 133 28 160 26 27 33 28 135 31 123 3 148 -5 174 -58 14 -26
18 -60 18 -135 l0 -100 174 -82 c95 -46 176 -83 180 -83 3 0 6 48 6 107 0 102
-1 105 -18 90 -22 -20 -32 -13 -32 20 0 24 14 31 25 13 3 -5 11 -10 17 -10 7
0 9 52 6 163 -5 213 -24 259 -123 304 -36 16 -78 18 -395 20 -195 1 -374 -2
-397 -7z m737 -399 c0 -16 -9 -39 -20 -52 l-19 -24 -1 27 c0 31 19 78 32 78 4
0 8 -13 8 -29z m-715 -210 c-20 -40 -25 -39 -25 4 0 24 5 35 15 35 8 0 16 8
16 18 1 12 3 10 6 -5 2 -12 -3 -35 -12 -52z m155 -95 c0 -2 -9 -6 -20 -9 -11
-3 -20 -1 -20 4 0 5 9 9 20 9 11 0 20 -2 20 -4z m-272 -51 c13 -28 6 -31 -22
-10 -10 7 -15 18 -11 24 10 17 21 13 33 -14z m269 -74 c-6 -17 -17 -28 -26
-26 -19 3 -16 24 7 42 26 19 31 15 19 -16z m-57 -61 c0 -5 -7 -10 -16 -10 -8
0 -12 5 -9 10 3 6 10 10 16 10 5 0 9 -4 9 -10z m27 -32 c-3 -8 -6 -5 -6 6 -1
11 2 17 5 13 3 -3 4 -12 1 -19z"/>
<path d="M10630 10764 c0 -4 20 -39 45 -79 l46 -73 -1 -748 0 -749 -45 -74
c-25 -41 -44 -75 -42 -77 3 -3 540 -24 543 -21 2 1 -17 34 -42 72 l-44 70 0
323 0 322 93 0 c52 0 135 -3 185 -6 l92 -7 0 -319 0 -319 -46 -71 c-25 -39
-44 -71 -42 -73 5 -4 542 -34 546 -31 1 2 -17 37 -43 79 l-45 75 0 355 c0 306
-2 356 -15 361 -8 3 -15 17 -15 30 0 18 4 24 15 20 13 -5 15 17 15 165 0 147
-2 170 -15 165 -8 -4 -15 -1 -15 5 0 7 7 14 15 17 13 5 15 39 15 223 l0 217
46 73 c26 39 44 74 42 77 -3 2 -127 3 -277 2 l-272 -3 46 -73 45 -74 0 -325 0
-326 -122 6 c-66 4 -150 7 -185 7 l-63 0 0 321 0 322 31 51 c18 28 38 61 47
74 l14 22 -276 0 c-152 0 -276 -3 -276 -6z m254 -465 c-8 -13 -24 -1 -24 18 0
13 3 13 15 3 8 -7 12 -16 9 -21z m880 -421 c9 -17 16 -32 16 -34 0 -5 -73 8
-95 17 -18 7 -17 8 6 8 18 1 28 8 32 21 7 29 23 25 41 -12z m-327 -34 c8 -21
-13 -42 -28 -27 -13 13 -5 43 11 43 6 0 13 -7 17 -16z m317 -534 c20 -19 15
-60 -8 -60 -12 0 -47 40 -70 79 -12 20 54 4 78 -19z m-864 -275 c-11 -14 -14
-13 -25 2 -19 26 2 51 23 29 13 -12 13 -18 2 -31z m130 9 c0 -8 -5 -12 -10 -9
-6 4 -8 11 -5 16 9 14 15 11 15 -7z"/>
<path d="M12087 10738 c13 -23 32 -36 73 -50 30 -10 58 -22 63 -27 16 -16 65
7 111 53 25 25 46 48 46 51 0 3 -27 5 -60 5 -45 0 -62 -4 -67 -15 -5 -14 -8
-14 -29 0 -15 10 -47 15 -90 15 l-66 0 19 -32z"/>
<path d="M12425 10739 c-44 -33 -59 -54 -50 -69 3 -5 -10 -26 -28 -47 -41 -46
-60 -80 -54 -97 3 -6 -6 -32 -20 -56 -13 -25 -21 -36 -18 -25 23 70 12 152
-18 147 -10 -2 -17 1 -17 6 0 14 -27 23 -45 16 -13 -5 -15 -36 -15 -189 0
-160 2 -184 16 -189 25 -9 26 -3 16 53 -5 29 -6 54 -1 57 5 3 21 -7 35 -21 22
-22 25 -33 22 -76 -3 -50 -3 -50 23 -45 14 3 31 0 38 -7 9 -9 16 -9 30 0 16
10 26 8 56 -13 20 -13 44 -23 53 -22 11 2 18 -5 20 -19 3 -21 45 -43 58 -30 3
2 4 28 2 57 l-3 52 -27 -21 c-29 -23 -38 -26 -38 -11 0 6 16 20 35 31 l34 20
3 194 3 193 -31 11 c-42 15 -66 42 -54 61 7 12 10 12 10 2 0 -21 42 -51 70
-52 20 0 32 11 58 54 17 30 32 57 32 60 0 3 -35 6 -77 6 -71 -1 -82 -3 -118
-31z"/>
<path d="M12772 10763 c25 -51 35 -63 59 -72 19 -7 29 -17 29 -30 0 -11 11
-28 24 -36 17 -12 22 -22 18 -38 -3 -12 -7 -16 -10 -9 -3 10 -7 10 -18 1 -12
-10 -14 -137 -14 -810 l0 -799 -46 -71 c-25 -39 -44 -72 -42 -73 6 -5 543 -64
546 -61 2 2 -17 40 -42 85 l-46 82 0 349 0 349 48 0 c77 0 131 -34 163 -100
15 -30 59 -188 99 -350 l73 -295 -26 -75 c-15 -46 -22 -77 -16 -81 6 -3 64
-14 129 -23 110 -15 122 -15 151 -1 29 16 31 16 25 -3 -6 -17 3 -21 101 -36
60 -10 121 -20 137 -24 l29 -5 -49 71 -49 72 -40 -6 c-22 -3 -47 -12 -55 -19
-29 -23 -40 -27 -40 -11 0 9 7 16 15 16 8 0 19 9 25 20 7 13 21 20 41 20 20 0
29 4 26 13 -2 6 -44 153 -93 324 -56 196 -94 313 -101 313 -7 0 -13 4 -13 9 0
5 -10 13 -22 17 -20 6 -21 7 -4 20 10 7 15 17 12 23 -4 5 -2 12 3 15 6 4 6 18
1 37 -7 24 -6 31 8 35 79 24 124 70 148 150 18 60 18 75 -1 68 -8 -4 -15 -1
-15 4 0 6 7 17 15 26 21 21 22 689 1 759 -19 65 -49 102 -104 129 -47 23 -51
23 -454 26 l-406 3 -26 -26 c-34 -33 -59 -34 -50 0 l6 25 -77 0 c-42 0 -75 -3
-73 -7z m128 -83 c0 -5 -4 -10 -9 -10 -6 0 -13 5 -16 10 -3 6 1 10 9 10 9 0
16 -4 16 -10z m60 -10 c0 -5 -4 -10 -9 -10 -6 0 -13 5 -16 10 -3 6 1 10 9 10
9 0 16 -4 16 -10z m280 -35 c0 -8 -7 -15 -15 -15 -8 0 -15 7 -15 15 0 8 7 15
15 15 8 0 15 -7 15 -15z m-300 -15 c0 -5 -5 -10 -11 -10 -5 0 -7 5 -4 10 3 6
8 10 11 10 2 0 4 -4 4 -10z m593 -153 c57 -37 62 -55 65 -260 5 -292 -8 -313
-203 -309 -60 1 -122 5 -137 8 l-28 6 0 287 c0 158 2 290 4 292 2 2 64 2 138
-1 105 -4 140 -9 161 -23z m148 -499 c31 -38 20 -197 -14 -185 -8 2 -17 207
-9 207 2 0 12 -10 23 -22z m-478 -143 c-5 -16 -33 -21 -33 -7 0 13 22 32 31
26 5 -2 6 -11 2 -19z m132 -56 c-23 -44 -22 -44 -39 -29 -14 10 -12 16 11 46
33 44 52 31 28 -17z m154 18 c6 -8 8 -17 4 -20 -11 -12 -21 -7 -26 13 -6 23 5
26 22 7z m191 -232 c0 -8 -7 -15 -15 -15 -8 0 -15 7 -15 15 0 8 7 15 15 15 8
0 15 -7 15 -15z m-2 -327 c-6 -18 -28 -21 -28 -4 0 9 7 16 16 16 9 0 14 -5 12
-12z m-70 -100 c-13 -22 -13 -22 -16 14 -2 20 3 47 10 60 13 22 13 22 16 -14
2 -20 -3 -47 -10 -60z m282 67 c0 -8 -4 -15 -10 -15 -5 0 -10 7 -10 15 0 8 5
15 10 15 6 0 10 -7 10 -15z m-845 -255 c0 -7 -6 -15 -12 -17 -8 -3 -13 4 -13
17 0 13 5 20 13 18 6 -3 12 -11 12 -18z m-170 -69 c-9 -16 -25 -3 -18 15 4 10
9 12 15 6 6 -6 7 -15 3 -21z m1105 -46 c0 -8 -4 -15 -10 -15 -5 0 -10 7 -10
15 0 8 5 15 10 15 6 0 10 -7 10 -15z"/>
<path d="M14130 10535 c0 -129 2 -235 5 -235 4 0 74 43 156 95 102 65 160 95
180 95 l29 0 0 -245 c0 -210 2 -249 16 -271 15 -23 15 -26 0 -43 -14 -15 -16
-52 -16 -290 0 -214 3 -272 13 -268 6 2 11 14 10 26 -3 23 7 27 24 10 8 -8 18
-3 37 18 14 15 26 23 26 18 -1 -15 -21 -46 -54 -82 -51 -55 -56 -85 -56 -359
l0 -252 -45 -78 c-29 -51 -40 -80 -32 -82 115 -24 532 -100 534 -98 2 2 -17
47 -42 100 l-45 97 0 895 0 894 32 0 c24 0 64 -25 184 -115 85 -63 156 -115
159 -115 3 0 5 85 5 188 0 135 -3 191 -12 200 -10 10 -10 17 -1 31 15 24 8 31
-31 31 -17 0 -38 5 -46 10 -11 7 0 10 38 10 50 0 53 2 50 23 l-3 22 -557 3
-558 2 0 -235z m1030 130 c18 -53 -5 -128 -24 -79 -9 25 -7 114 3 114 5 0 15
-16 21 -35z m-129 -51 c10 -12 10 -24 1 -60 -7 -24 -12 -53 -12 -64 0 -11 -4
-20 -9 -20 -13 0 -20 25 -11 40 5 7 6 37 3 67 -6 55 3 67 28 37z m-266 -22 c9
-42 -22 -108 -42 -88 -16 15 8 116 27 116 5 0 11 -13 15 -28z m-145 -32 c0
-13 -5 -18 -15 -14 -16 7 -19 17 -8 27 12 13 23 7 23 -13z m-260 -15 c0 -8 -7
-15 -15 -15 -8 0 -15 7 -15 15 0 8 7 15 15 15 8 0 15 -7 15 -15z m806 -70 c4
-8 3 -23 0 -32 -6 -15 -8 -15 -22 -2 -8 9 -12 23 -8 32 8 21 23 22 30 2z
m-366 -126 c0 -5 -7 -9 -15 -9 -15 0 -20 12 -9 23 8 8 24 -1 24 -14z m10 -110
c0 -24 -23 -21 -28 4 -2 10 3 17 12 17 10 0 16 -9 16 -21z m-180 -94 c0 -8 -7
-15 -15 -15 -8 0 -15 7 -15 15 0 8 7 15 15 15 8 0 15 -7 15 -15z m60 -260 c0
-8 -4 -15 -10 -15 -5 0 -10 7 -10 15 0 8 5 15 10 15 6 0 10 -7 10 -15z m150 0
c0 -8 -7 -15 -15 -15 -8 0 -15 7 -15 15 0 8 7 15 15 15 8 0 15 -7 15 -15z
m-310 -106 c0 -16 -4 -29 -10 -29 -5 0 -10 16 -10 36 0 21 4 33 10 29 6 -3 10
-19 10 -36z m235 13 c0 -18 -20 -15 -23 4 -3 10 1 15 10 12 7 -3 13 -10 13
-16z m155 -1240 c0 -11 -51 -35 -58 -28 -3 3 1 12 8 21 13 16 50 21 50 7z"/>
<path d="M12160 9600 l0 -567 -44 -69 c-25 -38 -44 -70 -42 -71 4 -4 319 -33
358 -33 29 0 38 4 43 23 4 12 18 41 31 64 l25 43 -1 517 c0 473 -2 518 -17
536 -35 37 -174 96 -265 110 l-88 14 0 -567z m95 120 c3 -5 1 -10 -4 -10 -6 0
-11 5 -11 10 0 6 2 10 4 10 3 0 8 -4 11 -10z m-15 -51 c0 -5 -7 -9 -15 -9 -9
0 -12 6 -9 15 6 15 24 11 24 -6z m241 -447 c-12 -32 -21 -66 -21 -76 0 -9 -5
-14 -10 -11 -6 4 -8 10 -5 15 3 5 8 22 10 37 10 59 18 88 28 102 20 25 19 -7
-2 -67z m29 -123 c0 -18 -18 -9 -23 12 -4 16 -3 18 9 8 8 -6 14 -15 14 -20z"/>
<path d="M10055 9947 c-8 -12 -15 -25 -15 -30 0 -22 -73 -77 -143 -107 -121
-51 -120 -59 18 -125 160 -77 164 -83 162 -273 l-2 -144 -33 -29 c-32 -29 -34
-29 -153 -29 -187 0 -199 13 -199 215 l0 110 -114 53 c-62 28 -122 52 -133 52
-11 0 -36 -16 -56 -35 -20 -19 -41 -35 -47 -35 -9 0 -11 -63 -8 -232 3 -214 5
-236 25 -273 54 -102 69 -105 502 -105 380 0 453 6 512 45 60 39 74 80 77 231
l4 132 -26 -5 c-15 -3 -31 1 -40 10 -13 13 -10 16 25 30 l39 15 0 129 c0 151
-8 185 -56 242 -37 43 -68 61 -231 137 l-93 43 -15 -22z m-45 -151 c0 -7 11
-23 25 -36 14 -13 23 -25 21 -28 -6 -6 -49 38 -70 71 -17 28 -17 28 3 17 12
-6 21 -17 21 -24z m166 -258 c0 -18 4 -42 8 -53 7 -18 6 -18 -4 -2 -6 9 -20
17 -30 17 -15 0 -19 6 -17 23 1 16 -3 22 -15 21 -26 -2 -22 14 5 19 50 10 54
8 53 -25z m14 -234 c0 -14 -29 -52 -30 -39 -1 6 -3 25 -4 42 -2 18 -11 44 -20
58 -31 48 -15 48 19 -1 19 -27 35 -54 35 -60z m153 79 c-7 -2 -19 -2 -25 0 -7
3 -2 5 12 5 14 0 19 -2 13 -5z"/>
<path d="M9330 9659 c0 -34 3 -39 23 -39 22 0 66 35 56 44 -2 2 -21 11 -41 19
l-38 16 0 -40z"/>
<path d="M9338 9593 c7 -3 16 -2 19 1 4 3 -2 6 -13 5 -11 0 -14 -3 -6 -6z"/>
<path d="M8357 9224 l-148 -75 -165 -11 c-141 -10 -164 -14 -164 -28 0 -9 -11
-26 -25 -38 -14 -13 -23 -27 -19 -33 3 -6 0 -22 -7 -36 -11 -20 -11 -26 1 -33
8 -6 25 -10 37 -10 24 0 86 -32 120 -63 20 -18 31 -19 132 -12 82 5 111 11
111 21 0 22 22 28 36 9 12 -16 25 -17 133 -10 l121 7 0 194 c0 107 -3 194 -7
193 -5 0 -75 -34 -156 -75z"/>
<path d="M12514 8916 c-14 -31 -24 -59 -23 -61 4 -3 95 -8 117 -6 9 1 4 16
-14 49 -47 83 -50 83 -80 18z"/>
<path d="M7778 8930 c-39 -7 -163 -65 -173 -80 -4 -6 19 -8 57 -4 96 8 128 14
128 24 0 13 40 33 48 25 4 -4 -2 -14 -13 -22 -19 -14 -17 -15 29 -9 27 3 66 6
87 6 22 0 39 5 39 10 0 6 -9 10 -20 10 -12 0 -35 7 -53 17 -45 23 -86 30 -129
23z m99 -26 c-3 -3 -12 -4 -19 -1 -8 3 -5 6 6 6 11 1 17 -2 13 -5z"/>
<path d="M9557 8564 c-3 -4 -57 -6 -119 -5 -208 3 -904 -30 -1348 -64 -157
-12 -197 -18 -207 -32 -10 -13 -15 -14 -28 -3 -23 19 -124 14 -155 -9 -45 -32
-56 -36 -36 -13 l19 22 -37 0 c-44 0 -104 -23 -112 -44 -3 -8 -19 -19 -35 -25
-16 -5 -32 -18 -36 -28 -7 -20 -28 -44 -99 -113 -25 -25 -53 -58 -61 -74 l-15
-28 74 6 c40 4 170 15 288 26 690 62 1293 96 1942 107 330 5 385 8 381 21 -5
12 -1 11 25 -2 25 -13 66 -16 211 -16 175 0 180 1 196 23 16 21 17 21 11 1 -6
-21 -4 -21 201 -27 116 -3 213 -1 219 4 6 5 15 5 20 0 5 -5 135 -14 289 -20
154 -7 339 -16 410 -20 l130 -8 27 25 c15 14 31 35 34 46 11 36 56 73 127 103
62 27 107 66 94 80 -11 11 -591 45 -1007 59 l-195 7 0 -31 c0 -18 -4 -31 -10
-31 -5 0 -10 12 -10 28 l0 28 -95 7 c-151 10 -228 8 -233 -6 -3 -10 -9 -10
-26 0 -16 9 -119 12 -424 12 -222 0 -406 -3 -410 -6z m150 -45 c2 -8 -6 -25
-17 -39 l-20 -25 0 36 c0 20 3 39 7 43 10 10 28 1 30 -15z m483 -18 c0 -12
-20 -25 -27 -18 -7 7 6 27 18 27 5 0 9 -4 9 -9z m760 -27 c0 -26 -17 -33 -26
-9 -8 20 3 48 16 40 5 -3 10 -17 10 -31z m-466 -29 c16 -30 17 -38 6 -45 -16
-10 -50 46 -50 81 0 28 18 13 44 -36z m196 40 c0 -8 -4 -15 -10 -15 -5 0 -10
7 -10 15 0 8 5 15 10 15 6 0 10 -7 10 -15z m1123 -70 c4 -11 -8 -2 -27 20 -20
22 -35 45 -36 50 0 15 55 -47 63 -70z m-1529 40 c3 -9 -3 -19 -14 -25 -18 -10
-19 -9 -8 15 13 29 14 30 22 10z m815 -26 c-5 -11 -7 -41 -3 -70 6 -47 5 -51
-12 -47 -21 4 -23 34 -9 116 6 34 10 40 21 31 10 -8 11 -16 3 -30z m-2539 -25
c0 -17 -10 -17 -32 0 -13 9 -14 16 -6 24 14 14 38 -2 38 -24z m2820 0 c0 -14
-7 -41 -15 -62 -13 -29 -18 -34 -25 -22 -15 23 -12 73 6 98 18 27 34 20 34
-14z m388 -12 c2 -7 -3 -12 -12 -12 -9 0 -16 7 -16 16 0 17 22 14 28 -4z
m-269 -6 c9 -10 8 -16 -4 -26 -13 -11 -15 -8 -15 14 0 30 3 32 19 12z m-3110
-66 c-13 -16 -24 -28 -26 -26 -8 8 21 56 34 56 10 0 7 -9 -8 -30z m-426 14 c9
-9 -4 -35 -14 -28 -5 3 -9 12 -9 20 0 14 12 19 23 8z m-196 -90 c9 -23 -13
-40 -31 -24 -15 11 -37 10 -83 -6 -15 -6 -16 -5 -5 7 14 16 68 37 95 38 10 1
20 -6 24 -15z m147 0 c19 -18 13 -34 -13 -34 -20 0 -41 19 -41 37 0 18 35 16
54 -3z"/>
<path d="M12045 8481 c-20 -6 -53 -25 -107 -62 -15 -11 -30 -19 -34 -19 -3 0
-28 -16 -54 -35 -26 -19 -50 -35 -53 -35 -10 0 -92 -79 -87 -83 4 -3 463 -41
645 -53 74 -5 510 -51 750 -79 674 -80 1363 -192 2042 -330 258 -52 325 -63
356 -56 126 29 145 191 29 250 -63 32 -1118 238 -1169 228 -12 -2 -24 0 -25 4
-3 10 -390 73 -738 120 -167 23 -235 29 -238 20 -5 -16 -22 -14 -22 3 0 14 3
13 -420 61 -300 34 -756 75 -810 73 -25 -1 -54 -4 -65 -7z m245 -46 c0 -18 59
-30 108 -21 58 11 61 12 68 19 14 14 31 7 42 -17 6 -13 21 -27 32 -31 l22 -7
-23 -12 c-19 -10 -26 -9 -34 1 -6 9 -43 16 -98 20 -65 4 -95 11 -113 25 -25
20 -32 38 -14 38 6 0 10 -7 10 -15z m-168 -77 c-7 -7 -12 -8 -12 -2 0 14 12
26 19 19 2 -3 -1 -11 -7 -17z m218 7 c0 -8 -7 -15 -15 -15 -8 0 -15 7 -15 15
0 8 7 15 15 15 8 0 15 -7 15 -15z m240 -34 c0 -9 -41 -23 -48 -17 -1 2 4 11
13 20 16 16 35 14 35 -3z m-489 -6 c0 -6 -10 -17 -22 -25 -13 -8 -21 -10 -18
-5 3 6 9 18 12 28 7 19 29 20 28 2z m1224 -34 c-9 -16 -25 -3 -18 15 4 10 9
12 15 6 6 -6 7 -15 3 -21z m-805 5 c0 -3 -4 -8 -10 -11 -5 -3 -10 -1 -10 4 0
6 5 11 10 11 6 0 10 -2 10 -4z m20 -60 c0 -8 -4 -17 -9 -21 -12 -7 -24 12 -16
25 9 15 25 12 25 -4z m729 -20 c-11 -10 -49 -16 -49 -8 0 13 44 31 49 20 1 -5
1 -11 0 -12z m806 -165 c-5 -17 -10 -19 -25 -11 -17 9 -18 14 -8 36 10 21 13
23 26 10 9 -8 11 -22 7 -35z m295 -6 c0 -8 -7 -15 -15 -15 -8 0 -15 7 -15 15
0 8 7 15 15 15 8 0 15 -7 15 -15z"/>
<path d="M7185 8414 c-121 -14 -357 -42 -525 -63 -252 -32 -312 -43 -343 -61
-20 -12 -37 -26 -37 -30 0 -4 -14 -13 -30 -19 -17 -5 -33 -17 -36 -26 -3 -8
-10 -15 -15 -15 -19 0 20 56 47 69 41 19 16 30 -46 21 -30 -5 -149 -23 -265
-40 -230 -34 -248 -38 -241 -49 5 -8 -34 -94 -40 -89 -1 2 3 22 9 45 6 23 9
44 6 47 -7 7 -523 -82 -924 -160 -241 -46 -303 -67 -330 -108 -39 -60 -25
-146 29 -181 58 -38 76 -37 375 20 412 79 449 87 559 122 54 17 79 30 73 36
-7 7 -3 23 9 48 24 45 47 64 35 28 -8 -28 -10 -68 -2 -76 16 -16 196 -5 347
20 131 23 170 33 188 50 28 25 74 113 76 141 1 21 26 36 26 16 0 -10 4 -10 15
0 21 17 19 4 -4 -28 -15 -23 -33 -63 -36 -82 0 -3 -3 -10 -7 -15 -4 -6 -3 -17
2 -24 6 -12 62 -7 311 27 167 23 405 53 529 67 357 41 320 32 350 92 14 29 33
55 42 58 30 11 117 101 124 129 3 14 11 27 18 27 6 1 17 2 25 3 8 0 16 7 18
14 7 17 -72 14 -332 -14z m35 -124 c0 -25 -16 -26 -24 -2 -3 9 -9 23 -12 30
-5 11 -2 12 15 3 11 -7 21 -21 21 -31z m-506 -37 c4 -9 3 -20 -2 -25 -11 -11
-42 1 -42 16 0 29 34 36 44 9z m566 -3 c0 -5 -2 -10 -4 -10 -3 0 -8 5 -11 10
-3 6 -1 10 4 10 6 0 11 -4 11 -10z m-952 -66 c-10 -10 -28 6 -28 24 0 15 1 15
17 -1 9 -9 14 -19 11 -23z m-933 -184 c42 0 50 -12 27 -40 l-18 -23 -36 32
c-20 17 -41 31 -47 31 -14 0 -14 13 1 28 9 9 15 7 25 -8 9 -13 26 -20 48 -20z
m-551 -77 c6 -15 -8 -32 -25 -33 -13 0 -17 28 -6 39 15 15 24 14 31 -6z"/>
<path d="M9521 8129 c-279 -5 -314 -7 -323 -22 -12 -22 -40 -23 -31 -1 5 15
-8 16 -133 10 -405 -19 -900 -49 -1025 -62 -43 -4 -55 -9 -55 -22 1 -26 -18
-28 -29 -3 -7 16 -16 20 -35 17 -14 -3 -69 -8 -122 -11 -54 -4 -100 -11 -103
-16 -3 -4 -18 -6 -34 -3 -15 3 -123 -4 -241 -16 -174 -18 -219 -25 -238 -41
-30 -24 -57 -25 -48 -3 5 14 -1 15 -41 10 -27 -3 -160 -20 -298 -36 -232 -29
-624 -82 -704 -96 -22 -3 -30 -8 -22 -13 9 -6 9 -11 -3 -20 -12 -10 -16 -8
-21 9 -4 13 -13 19 -23 16 -9 -3 -38 -8 -64 -12 -49 -6 -57 -24 -11 -24 18 0
24 -4 19 -15 -3 -9 3 -20 14 -27 11 -7 20 -17 20 -22 0 -5 7 -18 17 -28 9 -10
13 -21 9 -26 -5 -4 -15 3 -23 16 -9 12 -24 22 -35 22 -10 0 -21 7 -24 15 -9
22 -22 18 -26 -7 -4 -32 -40 -34 -74 -5 l-27 24 34 12 c32 12 33 13 15 27 -11
7 -32 14 -47 14 -58 0 -516 -82 -555 -100 -47 -20 -61 -35 -39 -44 17 -6 20
-32 4 -41 -5 -4 -19 1 -30 10 -18 17 -19 17 -33 -16 -16 -38 -12 -52 12 -47
22 4 83 -50 80 -71 -2 -9 6 -17 17 -19 11 -2 25 -10 32 -19 10 -13 38 -10 225
21 117 20 222 38 233 41 16 3 28 -9 54 -53 150 -249 363 -534 568 -760 l76
-83 33 32 c19 18 37 29 41 25 4 -4 0 -28 -10 -54 l-17 -47 140 -137 c625 -611
1487 -1062 2383 -1247 168 -35 176 -36 159 -19 -16 16 -15 25 3 32 25 9 74
-14 77 -37 2 -18 12 -23 58 -30 30 -5 77 -6 103 -3 33 3 56 1 70 -9 36 -22
365 -39 651 -32 503 12 931 85 1406 239 250 82 580 219 580 242 0 23 21 35 40
24 14 -9 38 0 123 45 260 139 477 277 687 435 161 123 222 174 408 345 111
103 152 146 149 159 -4 12 1 18 13 18 56 0 451 491 640 795 l82 132 196 -35
c122 -22 231 -36 285 -36 88 -1 89 -1 118 32 35 39 37 78 8 140 -35 72 -68 87
-289 126 -334 60 -714 118 -741 112 -14 -3 -31 0 -36 5 -12 12 -147 32 -568
84 -633 78 -1337 137 -1980 164 -565 25 -525 24 -525 3 0 -10 -8 -27 -19 -36
-17 -16 -20 -16 -35 -1 -9 9 -16 25 -16 35 0 17 -16 18 -237 22 -165 3 -244 1
-258 -7 -11 -6 -33 -16 -50 -23 l-30 -12 30 26 30 25 -150 -3 c-82 -2 -291 -6
-464 -9z m199 -21 c0 -7 -7 -21 -14 -31 -12 -16 -14 -16 -27 -1 -11 14 -10 18
6 30 23 17 35 18 35 2z m324 -53 c-10 -8 -26 -15 -35 -15 -25 0 -139 -41 -135
-49 2 -3 -2 -17 -10 -31 -8 -14 -14 -18 -13 -10 3 36 -2 40 -46 40 -41 0 -45
2 -45 25 0 16 6 25 15 25 9 0 15 -9 15 -22 1 -21 2 -22 14 -6 7 10 15 15 18
13 12 -12 78 -7 110 8 18 8 48 18 67 20 18 3 38 10 44 16 6 6 13 8 16 6 2 -3
-4 -12 -15 -20z m-1246 -76 c-3 -46 -6 -54 -24 -57 -41 -6 -48 21 -19 78 32
63 47 56 43 -21z m3642 -23 c0 -25 -5 -48 -10 -51 -16 -10 -31 42 -20 70 15
39 30 29 30 -19z m-5217 -6 c-3 -12 -8 -19 -11 -16 -5 6 5 36 12 36 2 0 2 -9
-1 -20z m1987 0 c0 -11 -7 -20 -15 -20 -8 0 -15 9 -15 20 0 11 7 20 15 20 8 0
15 -9 15 -20z m-1189 -41 l21 -41 -36 27 c-29 22 -34 30 -25 41 16 19 16 19
40 -27z m2473 -5 c9 -22 8 -24 -9 -18 -8 4 -15 12 -15 20 0 19 16 18 24 -2z
m-3407 -11 c0 -7 -27 -28 -59 -46 -32 -17 -61 -40 -64 -49 -3 -10 -12 -18 -20
-18 -8 0 -14 -4 -14 -10 0 -5 -7 -10 -15 -10 -8 0 -15 -4 -15 -10 0 -5 -4 -10
-10 -10 -19 0 -10 20 13 29 12 5 46 38 75 73 42 51 59 65 81 65 17 0 28 -6 28
-14z m1391 -11 c3 -17 -2 -22 -17 -22 -16 0 -21 6 -21 26 0 33 33 30 38 -4z
m4531 -40 c5 -18 8 -32 6 -32 -7 0 -35 58 -35 72 0 21 20 -5 29 -40z m-2689
13 c854 -8 1538 -45 2330 -125 339 -35 864 -98 897 -108 21 -7 17 -14 -70
-134 -105 -144 -229 -295 -343 -417 l-79 -85 3 -55 c3 -52 3 -55 -12 -36 -8
11 -16 28 -16 38 0 9 -3 17 -6 17 -3 0 -47 -39 -97 -86 -1071 -1002 -2586
-1385 -4012 -1014 -966 252 -1820 840 -2404 1655 -39 54 -69 100 -68 102 10 9
698 90 1092 128 665 63 1507 112 1993 116 89 0 175 4 190 8 15 5 43 7 62 5 19
-2 262 -6 540 -9z m2601 -68 c-16 -16 -26 0 -10 19 9 11 15 12 17 4 2 -6 -1
-17 -7 -23z m244 -57 c0 -8 -10 -16 -22 -18 -22 -3 -32 16 -16 32 12 11 38 2
38 -14z m535 -6 c0 -8 -7 -14 -15 -14 -15 0 -21 21 -9 33 10 9 24 -2 24 -19z
m-8220 -23 c0 -11 -31 -24 -39 -16 -3 3 1 10 9 15 19 12 30 12 30 1z m50 -6
c0 -8 -7 -15 -15 -15 -9 0 -12 6 -9 15 4 8 10 15 15 15 5 0 9 -7 9 -15z m-130
-76 c-29 -22 -43 -24 -37 -6 2 6 9 12 15 12 19 0 24 13 12 34 -6 12 -8 27 -4
33 5 7 13 0 23 -21 15 -31 15 -33 -9 -52z m277 59 c-3 -8 -6 -5 -6 6 -1 11 2
17 5 13 3 -3 4 -12 1 -19z m464 -10 l34 -13 -45 -5 c-43 -5 -70 3 -70 21 0 13
42 11 81 -3z m-321 -53 c17 -20 6 -43 -25 -51 -19 -5 -32 -1 -51 17 -31 29
-30 37 4 42 52 8 60 7 72 -8z m8016 -20 c4 -8 15 -15 25 -15 10 0 19 -5 19
-12 0 -18 -145 -230 -256 -373 -701 -904 -1720 -1518 -2834 -1709 -303 -52
-411 -61 -791 -61 -259 0 -355 -3 -352 -11 5 -13 -28 -24 -71 -24 -28 0 -28 0
-12 25 16 25 16 25 -14 25 -52 0 -319 40 -470 71 -826 167 -1609 574 -2221
1153 -128 121 -157 145 -165 138 -4 -4 -4 -1 0 6 5 8 -26 48 -83 110 -182 195
-507 631 -483 646 4 2 34 7 68 11 l61 7 83 -119 c581 -827 1412 -1435 2355
-1721 161 -49 422 -111 530 -126 17 -2 55 -9 85 -15 181 -35 350 -46 690 -46
369 0 484 9 775 60 996 175 1900 685 2576 1454 113 127 284 349 354 459 36 55
44 62 73 62 17 0 32 5 32 10 0 16 20 12 26 -5z m-7794 -42 c24 -21 23 -40 -2
-53 -38 -20 -90 18 -76 56 7 19 55 18 78 -3z m7908 -39 c0 -8 -7 -14 -15 -14
-15 0 -21 21 -9 33 10 9 24 -2 24 -19z m-7732 -157 c2 -10 -3 -17 -12 -17 -10
0 -16 9 -16 21 0 24 23 21 28 -4z m332 -96 c0 -24 -26 -35 -34 -14 -8 19 1 33
20 33 8 0 14 -9 14 -19z m240 -146 c0 -18 -44 -37 -74 -33 -17 3 -14 7 19 25
48 27 55 28 55 8z m119 -133 c6 -12 5 -23 -3 -35 -12 -16 -14 -16 -31 3 -15
16 -15 22 -5 35 16 20 27 19 39 -3z m6175 -148 c3 -8 2 -12 -4 -9 -6 3 -10 10
-10 16 0 14 7 11 14 -7z m514 -37 c2 -10 -3 -17 -12 -17 -10 0 -16 9 -16 21 0
24 23 21 28 -4z m-88 -79 c0 -7 -9 -28 -21 -47 -15 -25 -23 -31 -32 -22 -8 8
-6 20 6 46 16 34 47 48 47 23z m-6855 -39 c9 -27 -15 -46 -28 -23 -10 17 -2
44 12 44 5 0 13 -10 16 -21z m199 -115 c19 -19 20 -31 4 -37 -20 -6 -46 4 -52
20 -13 33 21 45 48 17z m141 -134 c3 -5 2 -10 -4 -10 -7 0 -7 -8 -1 -24 6 -18
5 -28 -5 -36 -12 -10 -16 -9 -20 1 -4 11 -1 66 4 77 3 6 20 1 26 -8z m6105
-92 c0 -36 -19 -26 -34 19 -9 26 -16 49 -16 52 0 15 49 -56 50 -71z m-5947 37
c8 -19 -8 -28 -34 -20 -19 7 -20 7 -2 21 23 17 30 17 36 -1z m-35 -223 c20
-26 -3 -37 -32 -16 -32 24 -35 48 -3 39 12 -4 28 -14 35 -23z m722 -308 c0
-19 -30 -25 -36 -9 -9 21 16 51 27 33 5 -7 9 -18 9 -24z m990 -4 c0 -10 -31
-23 -38 -15 -8 7 19 35 29 29 5 -3 9 -9 9 -14z m3530 -36 c0 -46 -12 -57 -30
-25 -13 26 -13 54 2 69 18 18 28 4 28 -44z m-210 14 c0 -7 -7 -22 -15 -32 -14
-19 -15 -19 -15 5 0 14 3 29 7 32 10 11 23 8 23 -5z m-1787 -145 c3 -16 2 -32
-3 -37 -11 -11 -33 31 -26 50 9 23 23 16 29 -13z m1677 -42 c0 -5 -7 -14 -15
-21 -16 -14 -18 -10 -9 14 6 17 24 22 24 7z m-3455 -21 c10 -16 -5 -50 -21
-50 -20 0 -29 27 -14 45 14 17 26 19 35 5z m3113 -62 c-6 -18 -28 -21 -28 -4
0 9 7 16 16 16 9 0 14 -5 12 -12z m179 -72 c-4 -9 -11 -16 -16 -16 -16 0 -21
31 -9 53 l11 22 10 -22 c5 -12 7 -29 4 -37z m-2627 -51 c0 -8 -7 -15 -16 -15
-14 0 -14 3 -4 15 7 8 14 15 16 15 2 0 4 -7 4 -15z m2100 0 c0 -8 -7 -15 -15
-15 -8 0 -15 7 -15 15 0 8 7 15 15 15 8 0 15 -7 15 -15z m-987 -32 c8 -7 -21
-43 -35 -43 -13 0 -9 38 5 43 18 8 23 8 30 0z m-1789 -28 c7 -19 -23 -35 -66
-35 l-33 0 40 24 c49 29 51 30 59 11z m1696 -29 c0 -7 -17 -20 -37 -30 -40
-19 -40 -18 5 36 15 18 32 15 32 -6z m194 -63 c9 -23 -16 -37 -31 -16 -7 9
-10 20 -7 24 9 15 31 10 38 -8z m-1134 -77 c0 -17 -14 -34 -25 -30 -17 7 -8
34 11 34 8 0 14 -2 14 -4z"/>
<path d="M9504 7406 c-3 -14 -3 -30 1 -35 4 -7 88 -11 244 -11 193 0 241 3
257 15 25 19 38 19 30 0 -5 -14 22 -15 227 -13 l232 3 0 30 0 30 -492 3 -493
2 -6 -24z m803 -28 c-3 -8 -6 -5 -6 6 -1 11 2 17 5 13 3 -3 4 -12 1 -19z"/>
<path d="M12290 7248 c-14 -11 -36 -29 -49 -39 -22 -17 -23 -21 -9 -37 24 -27
101 -172 91 -172 -4 0 -43 33 -84 73 l-77 72 -52 -40 c-46 -34 -50 -40 -34
-48 21 -9 204 -238 216 -269 8 -19 9 -19 38 2 33 23 46 40 32 40 -6 0 -45 43
-87 97 -43 53 -72 92 -64 88 12 -7 89 -72 175 -147 20 -18 22 -18 44 0 l23 18
-57 109 c-31 59 -55 110 -53 112 7 7 137 -166 137 -182 0 -13 9 -10 41 16 23
18 37 35 30 37 -18 6 -221 262 -221 278 0 19 -10 17 -40 -8z"/>
<path d="M9202 7238 c-15 -15 -15 -41 0 -56 9 -9 200 -12 800 -12 l788 0 10
26 c22 56 56 54 -799 54 -596 0 -790 -3 -799 -12z"/>
<path d="M7750 7207 c0 -20 -207 -275 -227 -279 -10 -2 11 -25 61 -66 l77 -64
22 28 c12 16 21 31 20 33 -1 3 -16 9 -34 15 -63 21 -60 34 36 151 63 76 84
109 76 115 -10 5 -10 13 -2 27 8 16 6 24 -9 38 -17 16 -20 16 -20 2z"/>
<path d="M9523 7060 c-25 -10 -30 -39 -11 -58 17 -17 959 -17 976 0 20 20 14
48 -14 58 -32 13 -921 12 -951 0z"/>
<path d="M8117 6913 c-33 -38 -158 -283 -153 -300 3 -10 39 -36 80 -58 62 -33
76 -37 90 -26 24 20 168 290 164 309 -3 16 -129 92 -153 92 -7 0 -19 -8 -28
-17z m78 -65 c14 -6 25 -16 25 -22 -1 -6 -27 -58 -59 -116 -59 -107 -83 -128
-110 -96 -11 13 -2 35 49 131 34 63 63 115 65 115 2 0 16 -5 30 -12z"/>
<path d="M11772 6893 c-35 -21 -41 -28 -28 -35 24 -13 158 -244 154 -265 -2
-12 -12 -18 -28 -18 -21 0 -35 18 -94 115 -38 63 -71 125 -75 136 l-6 21 -38
-24 c-37 -23 -38 -25 -22 -43 10 -11 52 -77 94 -146 42 -70 83 -132 92 -137
24 -15 153 60 157 92 2 14 -24 69 -75 153 -43 73 -80 142 -83 154 l-5 22 -43
-25z"/>
<path d="M8578 6650 c-16 -51 -8 -66 21 -37 10 10 11 9 6 -5 -4 -10 -15 -20
-26 -23 -22 -7 -17 -20 12 -36 18 -9 22 -6 36 30 17 44 23 47 54 31 24 -13 24
-26 0 -72 -13 -26 -15 -40 -8 -47 8 -8 1 -11 -21 -11 -19 0 -35 6 -38 15 -3 8
-14 17 -24 20 -10 3 -20 15 -23 25 -7 29 -24 24 -36 -10 -6 -17 -6 -30 -1 -30
5 0 7 -7 4 -15 -4 -8 -12 -15 -18 -15 -7 0 -19 -19 -27 -42 -7 -22 -22 -49
-32 -58 -17 -17 -16 -18 23 -34 47 -19 64 -20 55 -5 -9 14 46 140 59 136 15
-5 10 -135 -5 -153 -7 -8 -10 -16 -8 -18 5 -4 80 -36 85 -36 2 0 4 20 4 44 0
84 11 134 31 139 27 7 62 87 46 106 -9 12 -9 13 0 7 16 -9 38 36 30 59 -10 25
-98 59 -119 46 -25 -15 -33 -14 -19 3 10 12 8 17 -8 25 -31 17 -35 14 -53 -39z"/>
<path d="M11255 6649 c-74 -30 -80 -39 -65 -92 6 -25 20 -59 30 -75 16 -26 26
-31 77 -37 32 -4 66 -11 75 -16 19 -10 34 -67 22 -79 -22 -20 -47 -14 -64 15
-12 22 -25 31 -50 33 -30 3 -32 2 -27 -20 12 -48 38 -99 53 -105 18 -7 94 14
94 26 0 5 11 9 25 9 31 0 55 18 55 42 0 31 -42 131 -59 139 -9 5 -42 12 -73
15 -43 6 -62 13 -73 29 -20 29 -19 54 4 67 27 14 29 14 45 -19 11 -20 25 -30
48 -34 18 -2 34 -4 35 -3 2 1 -8 29 -20 62 -20 52 -26 59 -53 61 -16 1 -51 -7
-79 -18z"/>
<path d="M9079 6538 c0 -2 -2 -15 -4 -30 -9 -66 -67 -313 -76 -324 -11 -14 4
-19 124 -45 64 -14 77 -8 77 38 0 19 -5 21 -49 20 -27 -1 -52 1 -56 5 -4 4 -4
30 0 57 8 56 19 62 67 37 27 -14 28 -14 34 12 3 15 7 32 9 38 2 7 -12 11 -36
11 -22 0 -42 3 -45 6 -4 3 -1 29 6 57 12 51 13 52 43 46 17 -3 38 -13 47 -21
25 -23 37 -18 43 18 2 17 3 34 2 35 -7 8 -184 45 -186 40z"/>
<path d="M10739 6496 c-73 -20 -76 -22 -63 -41 14 -22 84 -291 84 -326 0 -19
4 -21 37 -14 48 9 56 14 44 28 -12 15 -41 128 -35 138 2 4 22 10 43 14 22 3
47 12 57 20 17 12 17 18 5 76 -7 35 -19 79 -26 96 -17 40 -34 41 -146 9z m54
-44 c46 7 64 -97 19 -113 -18 -7 -24 -5 -28 9 -3 9 -14 38 -25 64 -10 26 -19
55 -19 65 0 15 2 14 16 -5 10 -14 24 -22 37 -20z"/>
<path d="M9567 6420 c7 -27 -17 -321 -28 -342 -7 -13 -2 -17 34 -20 l43 -3 2
89 c2 49 5 92 7 96 3 4 -6 15 -20 24 -29 19 -34 66 -10 86 20 16 36 3 60 -51
15 -33 16 -42 6 -49 -10 -6 -12 -26 -7 -86 10 -107 12 -114 45 -114 27 0 29 3
62 123 18 67 35 115 36 107 5 -23 -13 -203 -22 -222 -6 -16 -1 -18 38 -18 l44
0 2 61 c2 115 21 292 32 306 9 10 4 13 -29 13 -22 0 -54 3 -71 6 -28 6 -31 4
-31 -17 -1 -41 -47 -205 -54 -189 -3 8 -7 58 -8 110 -2 52 -7 98 -13 102 -5 4
-35 8 -67 8 -51 0 -56 -2 -51 -20z"/>
<path d="M10295 6423 c10 -24 34 -329 28 -353 -4 -16 0 -18 39 -13 23 3 44 6
45 7 1 1 -3 22 -9 48 -7 30 -15 45 -24 41 -16 -6 -27 28 -18 62 4 17 11 24 21
21 11 -5 13 0 9 22 -9 45 -11 156 -3 170 6 9 -5 12 -43 12 -46 0 -51 -2 -45
-17z"/>
<path d="M5120 7516 c0 -27 50 -75 85 -82 48 -9 67 2 29 16 -28 10 -39 24 -42
54 -2 25 -72 37 -72 12z"/>
</g>
</svg>
